<?xml version="1.0" encoding="utf-8"?>
<svg version="1.1" xmlns:xlink="http://www.w3.org/1999/xlink" width="22px" height="22px" xmlns="http://www.w3.org/2000/svg">
  <g transform="matrix(1 0 0 1 -93 -47 )">
    <path d="M 21.976579134137687 0.8359374999999993  C 22.01301159214573 1.0494791666666647  21.979181452566834 1.2552083333333324  21.87508871540099 1.4531249999999998  L 11.882185947480483 21.453125  C 11.705228294298557 21.817708333333332  11.408563993375918 22  10.992193044712561 22  C 10.940146676129643 22  10.862077123255265 21.989583333333332  10.757984386089426 21.96875  C 10.52898036432458 21.916666666666668  10.344215755855217 21.799479166666668  10.203690560681334 21.6171875  C 10.063165365507452 21.434895833333332  9.99290276792051 21.229166666666668  9.99290276792051 21  L 9.99290276792051 12  L 0.9992902767920512 12  C 0.770286255027206 12  0.5647030991246748 11.9296875  0.3825408090844571 11.7890625  C 0.2003785190442394 11.648437500000002  0.08327418973267094 11.463541666666664  0.0312278211497516 11.234375000000002  C -0.020818547433167734 11.005208333333334  0 10.786458333333332  0.0936834634492548 10.578125  C 0.18736692689850962 10.369791666666666  0.33830139578897567 10.213541666666666  0.546486870120653 10.109375  L 20.532292405961677 0.10937500000000067  C 20.667612964277268 0.03645833333333193  20.818547433167733 0  20.985095812633073 0  C 21.26614620298084 0  21.500354861603974 0.09895833333333126  21.687721788502486 0.2968750000000011  C 21.843860894251243 0.44270833333333126  21.940146676129643 0.6223958333333315  21.976579134137687 0.8359374999999993  Z " fill-rule="nonzero" fill="#6b6c6d" stroke="none" transform="matrix(1 0 0 1 93 47 )" />
  </g>
</svg>