<?xml version="1.0" encoding="utf-8"?>
<svg version="1.1" xmlns:xlink="http://www.w3.org/1999/xlink" width="65px" height="45px" xmlns="http://www.w3.org/2000/svg">
  <g transform="matrix(1 0 0 1 -516 -284 )">
    <path d="M 37.60714285714286 26.71875  C 37.82142857142858 26.53125  37.91666666666667 26.296875  37.892857142857146 26.015625  L 37.892857142857146 25.874999999999996  L 37.035714285714285 14.624999999999998  C 37.011904761904766 14.320312499999995  36.88095238095239 14.056640624999995  36.642857142857146 13.833984374999998  C 36.40476190476191 13.611328125  36.13095238095238 13.500000000000002  35.82142857142858 13.500000000000002  L 29.17857142857143 13.500000000000002  C 28.86904761904762 13.500000000000002  28.5952380952381 13.611328125  28.357142857142858 13.833984374999998  C 28.119047619047624 14.056640624999995  27.98809523809524 14.320312499999995  27.964285714285715 14.624999999999998  L 27.107142857142858 25.874999999999996  L 27.107142857142858 26.015625  C 27.083333333333336 26.296875  27.17857142857143 26.53125  27.392857142857142 26.71875  C 27.607142857142858 26.90625  27.857142857142854 27  28.142857142857142 27  L 36.857142857142854 27  C 37.14285714285714 27  37.39285714285714 26.90625  37.60714285714286 26.71875  Z M 64.07142857142857 38.35546875  C 64.6904761904762 39.80859374999999  65 41.16796875  65 42.43359375  C 65 44.14453125000001  64.45238095238095 45  63.357142857142854 45  L 38.214285714285715 45  C 38.523809523809526 45  38.785714285714285 44.88867187499999  39 44.666015625  C 39.214285714285715 44.443359375  39.30952380952382 44.1796875  39.285714285714285 43.875  L 38.57142857142857 34.875  C 38.54761904761906 34.5703125  38.416666666666664 34.306640625  38.17857142857143 34.083984375  C 37.94047619047619 33.86132812499999  37.66666666666667 33.75  37.357142857142854 33.75  L 27.642857142857142 33.75  C 27.333333333333332 33.75  27.05952380952381 33.86132812499999  26.82142857142857 34.083984375  C 26.583333333333336 34.306640625  26.452380952380956 34.5703125  26.428571428571427 34.875  L 25.71428571428571 43.875  C 25.690476190476193 44.1796875  25.785714285714285 44.443359375  26 44.666015625  C 26.214285714285715 44.88867187499999  26.476190476190474 45  26.785714285714285 45  L 1.6428571428571428 45  C 0.5476190476190479 45  0 44.14453125000001  0 42.43359375  C 0 41.16796875  0.3095238095238097 39.80859374999999  0.9285714285714285 38.35546875  L 15.821428571428571 1.6523437500000009  C 16.011904761904763 1.2070312499999964  16.321428571428577 0.8203124999999983  16.75 0.492187500000002  C 17.17857142857143 0.16406249999999567  17.630952380952383 0  18.107142857142858 0  L 30.214285714285715 0  C 29.904761904761905 0  29.630952380952383 0.11132812499999367  29.392857142857142 0.333984375000001  C 29.154761904761905 0.5566406249999983  29.023809523809526 0.8203124999999983  29 1.1250000000000009  L 28.464285714285715 7.875000000000002  C 28.440476190476197 8.203124999999998  28.53571428571429 8.472656249999998  28.75 8.683593750000002  C 28.96428571428572 8.894531249999998  29.22619047619048 8.999999999999998  29.535714285714285 8.999999999999998  L 35.46428571428571 8.999999999999998  C 35.773809523809526 8.999999999999998  36.035714285714285 8.894531249999998  36.25 8.683593750000002  C 36.464285714285715 8.472656249999998  36.55952380952381 8.203124999999998  36.535714285714285 7.875000000000002  L 36 1.1250000000000009  C 35.97619047619048 0.8203124999999983  35.845238095238095 0.5566406249999983  35.60714285714286 0.333984375000001  C 35.36904761904762 0.11132812499999367  35.0952380952381 0  34.785714285714285 0  L 46.89285714285714 0  C 47.36904761904762 0  47.82142857142858 0.16406249999999567  48.25 0.492187500000002  C 48.67857142857143 0.8203124999999983  48.98809523809524 1.2070312499999964  49.17857142857143 1.6523437500000009  L 64.07142857142857 38.35546875  Z " fill-rule="nonzero" fill="#6b6c6d" stroke="none" transform="matrix(1 0 0 1 516 284 )" />
  </g>
</svg>