<?xml version="1.0" encoding="utf-8"?>
<svg version="1.1" xmlns:xlink="http://www.w3.org/1999/xlink" width="38px" height="32px" xmlns="http://www.w3.org/2000/svg">
  <g transform="matrix(1 0 0 1 -26 -28 )">
    <path d="M 37.52994791666667 26.075  C 37.84331597222222 26.39166666666667  38 26.76666666666667  38 27.2  L 38 30.4  C 38 30.833333333333332  37.84331597222222 31.208333333333332  37.52994791666667 31.525  C 37.216579861111114 31.84166666666667  36.845486111111114 32  36.41666666666667 32  L 1.5833333333333333 32  C 1.154513888888889 32  0.7834201388888888 31.84166666666667  0.4700520833333333 31.525  C 0.1566840277777778 31.208333333333332  0 30.833333333333332  0 30.4  L 0 27.2  C 0 26.76666666666667  0.1566840277777778 26.39166666666667  0.4700520833333333 26.075  C 0.7834201388888888 25.758333333333333  1.154513888888889 25.6  1.5833333333333333 25  L 36.41666666666667 25  C 36.845486111111114 25.6  37.216579861111114 25.758333333333333  37.52994791666667 26.075  Z M 37.52994791666667 13.274999999999999  C 37.84331597222222 13.591666666666665  38 13.966666666666665  38 14.399999999999999  L 38 17.6  C 38 18.03333333333333  37.84331597222222 18.40833333333333  37.52994791666667 18.725  C 37.216579861111114 19.041666666666664  36.845486111111114 19.2  36.41666666666667 19  L 1.5833333333333333 19  C 1.154513888888889 19.2  0.7834201388888888 19.041666666666664  0.4700520833333333 18.725  C 0.1566840277777778 18.40833333333333  0 18.03333333333333  0 17.6  L 0 14.399999999999999  C 0 13.966666666666665  0.1566840277777778 13.591666666666665  0.4700520833333333 13.274999999999999  C 0.7834201388888888 12.958333333333336  1.154513888888889 12.8  1.5833333333333333 13  L 36.41666666666667 13  C 36.845486111111114 12.8  37.216579861111114 12.958333333333336  37.52994791666667 13.274999999999999  Z M 37.52994791666667 0.4750000000000014  C 37.84331597222222 0.7916666666666643  38 1.1666666666666643  38 1.6000000000000014  L 38 4.800000000000001  C 38 5.233333333333331  37.84331597222222 5.608333333333331  37.52994791666667 5.925000000000001  C 37.216579861111114 6.241666666666664  36.845486111111114 6.399999999999999  36.41666666666667 7  L 1.5833333333333333 7  C 1.154513888888889 6.399999999999999  0.7834201388888888 6.241666666666664  0.4700520833333333 5.925000000000001  C 0.1566840277777778 5.608333333333331  0 5.233333333333331  0 4.800000000000001  L 0 1.6000000000000014  C 0 1.1666666666666643  0.1566840277777778 0.7916666666666643  0.4700520833333333 0.4750000000000014  C 0.7834201388888888 0.15833333333333144  1.154513888888889 0  1.5833333333333333 0  L 36.41666666666667 0  C 36.845486111111114 0  37.216579861111114 0.15833333333333144  37.52994791666667 0.4750000000000014  Z " fill-rule="nonzero" fill="#6b6c6d" stroke="none" transform="matrix(1 0 0 1 26 28 )" />
  </g>
</svg>