<?xml version="1.0" encoding="utf-8"?>
<svg version="1.1" xmlns:xlink="http://www.w3.org/1999/xlink" width="714px" height="227px" xmlns="http://www.w3.org/2000/svg">
  <g transform="matrix(1 0 0 1 -175.5 -456.5 )">
    <path d="M 0.05797101449277875 60.28985507246375  L 59.47826086956525 83.47826086956525  L 81.21739130434787 102.31884057971024  L 110.2028985507247 118.26086956521749  L 140.6376811594203 132.75362318840587  L 187.01449275362324 133  L 220.34782608695647 154.4927536231885  L 285.5652173913044 190.7246376811595  L 331.94202898550725 218.2608695652175  L 358.0289855072465 219  L 376.86956521739137 218.2608695652175  L 404.40579710144937 190.7246376811595  L 423.2463768115942 174.78260869565224  L 431.94202898550725 163.1884057971015  L 440.6376811594205 154.4927536231885  L 472.52173913043475 141.5  L 497.1594202898551 141.5  L 553.6811594202899 141.5  L 607.304347826087 102.31884057971024  L 608 60  L 647.8840579710146 11.5  L 697.1594202898551 11.5  L 698 0.8695652173913119  L 705.8550724637682 0.8695652173913119  " stroke-width="7" stroke="#797979" fill="none" transform="matrix(1 0 0 1 179 460 )" />
  </g>
</svg>