<?xml version="1.0" encoding="utf-8"?>
<svg version="1.1" xmlns:xlink="http://www.w3.org/1999/xlink" width="20px" height="20px" xmlns="http://www.w3.org/2000/svg">
  <g transform="matrix(1 0 0 1 -73 -566 )">
    <path d="M 19.602272727272727 7.670454545454546  C 19.867424242424242 7.935606060606057  20 8.257575757575758  20 8.636363636363635  L 20 11.363636363636363  C 20 11.742424242424242  19.867424242424242 12.064393939393938  19.602272727272727 12.329545454545453  C 19.337121212121215 12.594696969696969  19.015151515151516 12.727272727272727  18.636363636363637 12.727272727272727  L 12.727272727272727 12.727272727272727  L 12.727272727272727 18.636363636363637  C 12.727272727272727 19.015151515151516  12.59469696969697 19.33712121212121  12.329545454545453 19.602272727272727  C 12.064393939393943 19.867424242424242  11.742424242424242 20  11.363636363636365 20  L 8.636363636363637 20  C 8.257575757575758 20  7.935606060606062 19.867424242424242  7.670454545454546 19.602272727272727  C 7.405303030303031 19.33712121212121  7.272727272727273 19.015151515151516  7.272727272727273 18.636363636363637  L 7.272727272727273 12.727272727272727  L 1.3636363636363635 12.727272727272727  C 0.984848484848485 12.727272727272727  0.662878787878788 12.594696969696969  0.3977272727272727 12.329545454545453  C 0.13257575757575757 12.064393939393938  0 11.742424242424242  0 11.363636363636363  L 0 8.636363636363635  C 0 8.257575757575758  0.13257575757575757 7.935606060606057  0.3977272727272727 7.670454545454546  C 0.662878787878788 7.405303030303029  0.984848484848485 7.272727272727273  1.3636363636363635 7.272727272727273  L 7.272727272727273 7.272727272727273  L 7.272727272727273 1.3636363636363646  C 7.272727272727273 0.984848484848484  7.405303030303031 0.6628787878787867  7.670454545454546 0.39772727272727293  C 7.935606060606062 0.1325757575757569  8.257575757575758 0  8.636363636363637 0  L 11.363636363636365 0  C 11.742424242424242 0  12.064393939393943 0.1325757575757569  12.329545454545453 0.39772727272727293  C 12.59469696969697 0.6628787878787867  12.727272727272727 0.984848484848484  12.727272727272727 1.3636363636363646  L 12.727272727272727 7.272727272727273  L 18.636363636363637 7.272727272727273  C 19.015151515151516 7.272727272727273  19.337121212121215 7.405303030303029  19.602272727272727 7.670454545454546  Z " fill-rule="nonzero" fill="#6b6c6d" stroke="none" transform="matrix(1 0 0 1 73 566 )" />
  </g>
</svg>