<?xml version="1.0" encoding="utf-8"?>
<svg version="1.1" xmlns:xlink="http://www.w3.org/1999/xlink" width="53px" height="53px" xmlns="http://www.w3.org/2000/svg">
  <defs>
    <mask fill="white" id="clip308">
      <path d="M 16.120833333333323 10.765625  C 17.151388888888885 12.053819444444436  17.666666666666654 13.618055555555548  17.666666666666654 15.458333333333325  C 17.666666666666654 17.298611111111107  17.151388888888885 18.862847222222218  16.120833333333323 20.151041666666675  C 15.090277777777782 21.439236111111107  13.838888888888883 22.083333333333325  12.366666666666665 22.083333333333325  C 10.894444444444437 22.083333333333325  9.643055555555557 21.439236111111107  8.612499999999997 20.151041666666675  C 7.581944444444437 18.862847222222218  7.066666666666668 17.298611111111107  7.066666666666668 15.458333333333325  C 7.066666666666668 13.618055555555548  7.581944444444437 12.053819444444436  8.612499999999997 10.765625  C 9.643055555555557 9.477430555555545  10.894444444444437 8.833333333333327  12.366666666666665 8.833333333333327  C 13.838888888888883 8.833333333333327  15.090277777777782 9.477430555555545  16.120833333333323 10.765625  Z M 34.44999999999999 14.354166666666675  L 46 28.70833333333335  L 46 44  L 7.066666666666668 44  L 7.066666666666668 37.54166666666665  L 15.900000000000006 26.5  L 20.316666666666656 32.02083333333335  L 34.44999999999999 14.354166666666675  Z M 49.20442708333331 4.744466145833326  C 49.02960069444445 4.525933159722218  48.82256944444445 4.416666666666674  48.58333333333331 5  L 4.416666666666674 5  C 4.177430555555566 4.416666666666674  3.9703993055555666 4.525933159722218  3.7955729166666736 4.744466145833326  C 3.62074652777778 4.962999131944436  3.5333333333333288 5.221788194444436  3.5333333333333288 5.520833333333326  L 3.5333333333333288 47.47916666666667  C 3.5333333333333288 47.778211805555564  3.62074652777778 48.037000868055564  3.7955729166666736 48.25553385416667  C 3.9703993055555666 48.474066840277786  4.177430555555566 48.58333333333333  4.416666666666674 48  L 48.58333333333331 48  C 48.82256944444445 48.58333333333333  49.02960069444445 48.474066840277786  49.20442708333331 48.25553385416667  C 49.37925347222221 48.037000868055564  49.46666666666666 47.778211805555564  49.46666666666666 47.47916666666667  L 49.46666666666666 5.520833333333326  C 49.46666666666666 5.221788194444436  49.37925347222221 4.962999131944436  49.20442708333331 4.744466145833326  Z M 51.702604166666646 1.6217447916666736  C 52.56753472222222 2.702907986111109  53 4.002604166666674  53 5.520833333333326  L 53 47.47916666666667  C 53 48.99739583333333  52.56753472222222 50.29709201388889  51.702604166666646 51.37825520833333  C 50.83767361111113 52.459418402777786  49.79791666666667 53  48.58333333333331 53  L 4.416666666666674 53  C 3.2020833333333303 53  2.162326388888891 52.459418402777786  1.2973958333333244 51.37825520833333  C 0.43246527777777827 50.29709201388889  0 48.99739583333333  0 47.47916666666667  L 0 5.520833333333326  C 0 4.002604166666674  0.43246527777777827 2.702907986111109  1.2973958333333244 1.6217447916666736  C 2.162326388888891 0.5405815972222177  3.2020833333333303 0  4.416666666666674 0  L 48.58333333333331 0  C 49.79791666666667 0  50.83767361111113 0.5405815972222177  51.702604166666646 1.6217447916666736  Z " fill-rule="evenodd" />
    </mask>
  </defs>
  <g transform="matrix(1 0 0 1 -339 -412 )">
    <path d="M 16.120833333333323 10.765625  C 17.151388888888885 12.053819444444436  17.666666666666654 13.618055555555548  17.666666666666654 15.458333333333325  C 17.666666666666654 17.298611111111107  17.151388888888885 18.862847222222218  16.120833333333323 20.151041666666675  C 15.090277777777782 21.439236111111107  13.838888888888883 22.083333333333325  12.366666666666665 22.083333333333325  C 10.894444444444437 22.083333333333325  9.643055555555557 21.439236111111107  8.612499999999997 20.151041666666675  C 7.581944444444437 18.862847222222218  7.066666666666668 17.298611111111107  7.066666666666668 15.458333333333325  C 7.066666666666668 13.618055555555548  7.581944444444437 12.053819444444436  8.612499999999997 10.765625  C 9.643055555555557 9.477430555555545  10.894444444444437 8.833333333333327  12.366666666666665 8.833333333333327  C 13.838888888888883 8.833333333333327  15.090277777777782 9.477430555555545  16.120833333333323 10.765625  Z M 34.44999999999999 14.354166666666675  L 46 28.70833333333335  L 46 44  L 7.066666666666668 44  L 7.066666666666668 37.54166666666665  L 15.900000000000006 26.5  L 20.316666666666656 32.02083333333335  L 34.44999999999999 14.354166666666675  Z M 49.20442708333331 4.744466145833326  C 49.02960069444445 4.525933159722218  48.82256944444445 4.416666666666674  48.58333333333331 5  L 4.416666666666674 5  C 4.177430555555566 4.416666666666674  3.9703993055555666 4.525933159722218  3.7955729166666736 4.744466145833326  C 3.62074652777778 4.962999131944436  3.5333333333333288 5.221788194444436  3.5333333333333288 5.520833333333326  L 3.5333333333333288 47.47916666666667  C 3.5333333333333288 47.778211805555564  3.62074652777778 48.037000868055564  3.7955729166666736 48.25553385416667  C 3.9703993055555666 48.474066840277786  4.177430555555566 48.58333333333333  4.416666666666674 48  L 48.58333333333331 48  C 48.82256944444445 48.58333333333333  49.02960069444445 48.474066840277786  49.20442708333331 48.25553385416667  C 49.37925347222221 48.037000868055564  49.46666666666666 47.778211805555564  49.46666666666666 47.47916666666667  L 49.46666666666666 5.520833333333326  C 49.46666666666666 5.221788194444436  49.37925347222221 4.962999131944436  49.20442708333331 4.744466145833326  Z M 51.702604166666646 1.6217447916666736  C 52.56753472222222 2.702907986111109  53 4.002604166666674  53 5.520833333333326  L 53 47.47916666666667  C 53 48.99739583333333  52.56753472222222 50.29709201388889  51.702604166666646 51.37825520833333  C 50.83767361111113 52.459418402777786  49.79791666666667 53  48.58333333333331 53  L 4.416666666666674 53  C 3.2020833333333303 53  2.162326388888891 52.459418402777786  1.2973958333333244 51.37825520833333  C 0.43246527777777827 50.29709201388889  0 48.99739583333333  0 47.47916666666667  L 0 5.520833333333326  C 0 4.002604166666674  0.43246527777777827 2.702907986111109  1.2973958333333244 1.6217447916666736  C 2.162326388888891 0.5405815972222177  3.2020833333333303 0  4.416666666666674 0  L 48.58333333333331 0  C 49.79791666666667 0  50.83767361111113 0.5405815972222177  51.702604166666646 1.6217447916666736  Z " fill-rule="nonzero" fill="#6b6c6d" stroke="none" transform="matrix(1 0 0 1 339 412 )" />
    <path d="M 16.120833333333323 10.765625  C 17.151388888888885 12.053819444444436  17.666666666666654 13.618055555555548  17.666666666666654 15.458333333333325  C 17.666666666666654 17.298611111111107  17.151388888888885 18.862847222222218  16.120833333333323 20.151041666666675  C 15.090277777777782 21.439236111111107  13.838888888888883 22.083333333333325  12.366666666666665 22.083333333333325  C 10.894444444444437 22.083333333333325  9.643055555555557 21.439236111111107  8.612499999999997 20.151041666666675  C 7.581944444444437 18.862847222222218  7.066666666666668 17.298611111111107  7.066666666666668 15.458333333333325  C 7.066666666666668 13.618055555555548  7.581944444444437 12.053819444444436  8.612499999999997 10.765625  C 9.643055555555557 9.477430555555545  10.894444444444437 8.833333333333327  12.366666666666665 8.833333333333327  C 13.838888888888883 8.833333333333327  15.090277777777782 9.477430555555545  16.120833333333323 10.765625  Z " stroke-width="8" stroke="#797979" fill="none" transform="matrix(1 0 0 1 339 412 )" mask="url(#clip308)" />
    <path d="M 34.44999999999999 14.354166666666675  L 46 28.70833333333335  L 46 44  L 7.066666666666668 44  L 7.066666666666668 37.54166666666665  L 15.900000000000006 26.5  L 20.316666666666656 32.02083333333335  L 34.44999999999999 14.354166666666675  Z " stroke-width="8" stroke="#797979" fill="none" transform="matrix(1 0 0 1 339 412 )" mask="url(#clip308)" />
    <path d="M 49.20442708333331 4.744466145833326  C 49.02960069444445 4.525933159722218  48.82256944444445 4.416666666666674  48.58333333333331 5  L 4.416666666666674 5  C 4.177430555555566 4.416666666666674  3.9703993055555666 4.525933159722218  3.7955729166666736 4.744466145833326  C 3.62074652777778 4.962999131944436  3.5333333333333288 5.221788194444436  3.5333333333333288 5.520833333333326  L 3.5333333333333288 47.47916666666667  C 3.5333333333333288 47.778211805555564  3.62074652777778 48.037000868055564  3.7955729166666736 48.25553385416667  C 3.9703993055555666 48.474066840277786  4.177430555555566 48.58333333333333  4.416666666666674 48  L 48.58333333333331 48  C 48.82256944444445 48.58333333333333  49.02960069444445 48.474066840277786  49.20442708333331 48.25553385416667  C 49.37925347222221 48.037000868055564  49.46666666666666 47.778211805555564  49.46666666666666 47.47916666666667  L 49.46666666666666 5.520833333333326  C 49.46666666666666 5.221788194444436  49.37925347222221 4.962999131944436  49.20442708333331 4.744466145833326  Z " stroke-width="8" stroke="#797979" fill="none" transform="matrix(1 0 0 1 339 412 )" mask="url(#clip308)" />
    <path d="M 51.702604166666646 1.6217447916666736  C 52.56753472222222 2.702907986111109  53 4.002604166666674  53 5.520833333333326  L 53 47.47916666666667  C 53 48.99739583333333  52.56753472222222 50.29709201388889  51.702604166666646 51.37825520833333  C 50.83767361111113 52.459418402777786  49.79791666666667 53  48.58333333333331 53  L 4.416666666666674 53  C 3.2020833333333303 53  2.162326388888891 52.459418402777786  1.2973958333333244 51.37825520833333  C 0.43246527777777827 50.29709201388889  0 48.99739583333333  0 47.47916666666667  L 0 5.520833333333326  C 0 4.002604166666674  0.43246527777777827 2.702907986111109  1.2973958333333244 1.6217447916666736  C 2.162326388888891 0.5405815972222177  3.2020833333333303 0  4.416666666666674 0  L 48.58333333333331 0  C 49.79791666666667 0  50.83767361111113 0.5405815972222177  51.702604166666646 1.6217447916666736  Z " stroke-width="8" stroke="#797979" fill="none" transform="matrix(1 0 0 1 339 412 )" mask="url(#clip308)" />
  </g>
</svg>