<?xml version="1.0" encoding="utf-8"?>
<svg version="1.1" xmlns:xlink="http://www.w3.org/1999/xlink" width="22px" height="22px" xmlns="http://www.w3.org/2000/svg">
  <g transform="matrix(1 0 0 1 -1156 -713 )">
    <path d="M 21.5625 8.4375  C 21.854166666666668 8.729166666666663  22 9.083333333333332  22 9.499999999999998  L 22 12.499999999999998  C 22 12.916666666666668  21.854166666666668 13.270833333333332  21.5625 13.5625  C 21.270833333333336 13.854166666666664  20.916666666666668 14  20.5 14  L 14 14  L 14 20.5  C 14 20.916666666666668  13.854166666666668 21.270833333333332  13.5625 21.5625  C 13.270833333333337 21.854166666666668  12.916666666666668 22  12.500000000000002 22  L 9.5 22  C 9.083333333333334 22  8.729166666666668 21.854166666666668  8.4375 21.5625  C 8.145833333333334 21.270833333333332  8 20.916666666666668  8 20.5  L 8 14  L 1.5 14  C 1.0833333333333335 14  0.7291666666666667 13.854166666666664  0.4375 13.5625  C 0.14583333333333331 13.270833333333332  0 12.916666666666668  0 12.499999999999998  L 0 9.499999999999998  C 0 9.083333333333332  0.14583333333333331 8.729166666666663  0.4375 8.4375  C 0.7291666666666667 8.145833333333332  1.0833333333333335 8  1.5 8  L 8 8  L 8 1.500000000000001  C 8 1.0833333333333324  8.145833333333334 0.7291666666666654  8.4375 0.4375000000000002  C 8.729166666666668 0.1458333333333326  9.083333333333334 0  9.5 0  L 12.500000000000002 0  C 12.916666666666668 0  13.270833333333337 0.1458333333333326  13.5625 0.4375000000000002  C 13.854166666666668 0.7291666666666654  14 1.0833333333333324  14 1.500000000000001  L 14 8  L 20.5 8  C 20.916666666666668 8  21.270833333333336 8.145833333333332  21.5625 8.4375  Z " fill-rule="nonzero" fill="#6b6c6d" stroke="none" transform="matrix(1 0 0 1 1156 713 )" />
  </g>
</svg>