<?xml version="1.0" encoding="utf-8"?>
<svg version="1.1" xmlns:xlink="http://www.w3.org/1999/xlink" width="25px" height="18px" xmlns="http://www.w3.org/2000/svg">
  <g transform="matrix(1 0 0 1 -318 -620 )">
    <path d="M 24.455915178571427 0.5203125000000004  C 24.818638392857142 0.6796874999999993  25 0.9562499999999996  25 1.3499999999999992  L 25 16.650000000000002  C 25 17.04375  24.818638392857142 17.3203125  24.455915178571427 17.4796875  C 24.335007440476193 17.526562499999997  24.218750000000004 17.55  24.107142857142858 17.55  C 23.85602678571429 17.55  23.646763392857146 17.4609375  23.479352678571427 17.282812500000002  L 17.857142857142858 11.615625  L 17.857142857142858 13.950000000000001  C 17.857142857142858 15.065624999999999  17.464192708333336 16.01953125  16.678292410714285 16.81171875  C 15.892392113095239 17.603906249999998  14.94605654761905 18  13.839285714285715 18  L 4.017857142857143 18  C 2.9110863095238098 18  1.964750744047619 17.603906249999998  1.1788504464285714 16.81171875  C 0.3929501488095238 16.01953125  0 15.065624999999999  0 13.950000000000001  L 0 4.05  C 0 2.934374999999997  0.3929501488095238 1.9804687499999993  1.1788504464285714 1.1882812500000004  C 1.964750744047619 0.39609374999999747  2.9110863095238098 0  4.017857142857143 0  L 13.839285714285715 0  C 14.94605654761905 0  15.892392113095239 0.39609374999999747  16.678292410714285 1.1882812500000004  C 17.464192708333336 1.9804687499999993  17.857142857142858 2.934374999999997  17.857142857142858 4.05  L 17.857142857142858 6.3703125  L 23.479352678571427 0.7171874999999992  C 23.646763392857146 0.5390624999999993  23.85602678571429 0.4500000000000004  24.107142857142858 0.4500000000000004  C 24.218750000000004 0.4500000000000004  24.335007440476193 0.47343749999999707  24.455915178571427 0.5203125000000004  Z " fill-rule="nonzero" fill="#6b6c6d" stroke="none" transform="matrix(1 0 0 1 318 620 )" />
  </g>
</svg>