<?xml version="1.0" encoding="utf-8"?>
<svg version="1.1" xmlns:xlink="http://www.w3.org/1999/xlink" width="25px" height="17px" xmlns="http://www.w3.org/2000/svg">
  <g transform="matrix(1 0 0 1 -318 -648 )">
    <path d="M 14.464285714285715 10.09375  C 14.546703296703297 10.022916666666667  14.583333333333334 9.934375  14.574175824175825 9.828125  L 14.574175824175825 9.774999999999999  L 14.244505494505495 5.5249999999999995  C 14.235347985347987 5.409895833333332  14.184981684981688 5.310286458333332  14.093406593406593 5.2261718749999995  C 14.001831501831505 5.142057291666667  13.896520146520148 5.1000000000000005  13.77747252747253 5.1000000000000005  L 11.222527472527473 5.1000000000000005  C 11.103479853479854 5.1000000000000005  10.9981684981685 5.142057291666667  10.906593406593407 5.2261718749999995  C 10.815018315018317 5.310286458333332  10.764652014652015 5.409895833333332  10.755494505494505 5.5249999999999995  L 10.425824175824177 9.774999999999999  L 10.425824175824177 9.828125  C 10.416666666666668 9.934375  10.453296703296704 10.022916666666667  10.535714285714286 10.09375  C 10.618131868131869 10.164583333333333  10.714285714285714 10.2  10.824175824175825 10.2  L 14.175824175824175 10.2  C 14.285714285714285 10.2  14.381868131868131 10.164583333333333  14.464285714285715 10.09375  Z M 24.642857142857146 14.489843749999999  C 24.880952380952383 15.038802083333332  25 15.552343749999999  25 16.03046875  C 25 16.67682291666667  24.789377289377292 17  24.36813186813187 17  L 14.697802197802199 17  C 14.816849816849818 17  14.917582417582418 16.95794270833333  15 16.873828125  C 15.082417582417582 16.789713541666668  15.11904761904762 16.690104166666668  15.10989010989011 16.575  L 14.835164835164836 13.175  C 14.826007326007328 13.059895833333332  14.775641025641026 12.960286458333332  14.684065934065934 12.876171875  C 14.592490842490843 12.792057291666664  14.487179487179489 12.75  14.368131868131867 12.75  L 10.631868131868131 12.75  C 10.512820512820513 12.75  10.407509157509159 12.792057291666664  10.315934065934066 12.876171875  C 10.224358974358976 12.960286458333332  10.173992673992675 13.059895833333332  10.164835164835164 13.175  L 9.89010989010989 16.575  C 9.880952380952381 16.690104166666668  9.917582417582418 16.789713541666668  10 16.873828125  C 10.082417582417582 16.95794270833333  10.183150183150182 17  10.302197802197801 17  L 0.6318681318681318 17  C 0.21062271062271073 17  0 16.67682291666667  0 16.03046875  C 0 15.552343749999999  0.11904761904761912 15.038802083333332  0.35714285714285715 14.489843749999999  L 6.085164835164835 0.6242187500000004  C 6.158424908424909 0.45598958333333195  6.277472527472529 0.3098958333333327  6.442307692307692 0.18593750000000075  C 6.607142857142858 0.06197916666666503  6.781135531135532 0  6.964285714285714 0  L 11.62087912087912 0  C 11.501831501831502 0  11.396520146520148 0.042057291666664276  11.304945054945055 0.12617187500000038  C 11.213369963369964 0.2102864583333327  11.163003663003664 0.3098958333333327  11.153846153846155 0.4250000000000004  L 10.947802197802197 2.9750000000000005  C 10.938644688644692 3.0989583333333326  10.975274725274726 3.2007812499999995  11.057692307692307 3.2804687500000003  C 11.140109890109892 3.3601562499999997  11.240842490842493 3.3999999999999995  11.35989010989011 3.3999999999999995  L 13.640109890109889 3.3999999999999995  C 13.759157509157511 3.3999999999999995  13.859890109890111 3.3601562499999997  13.942307692307693 3.2804687500000003  C 14.024725274725276 3.2007812499999995  14.061355311355312 3.0989583333333326  14.052197802197803 2.9750000000000005  L 13.846153846153847 0.4250000000000004  C 13.836996336996338 0.3098958333333327  13.786630036630038 0.2102864583333327  13.695054945054947 0.12617187500000038  C 13.603479853479856 0.042057291666664276  13.4981684981685 0  13.37912087912088 0  L 18.035714285714285 0  C 18.21886446886447 0  18.392857142857146 0.06197916666666503  18.557692307692307 0.18593750000000075  C 18.722527472527474 0.3098958333333327  18.84157509157509 0.45598958333333195  18.914835164835164 0.6242187500000004  L 24.642857142857146 14.489843749999999  Z " fill-rule="nonzero" fill="#6b6c6d" stroke="none" transform="matrix(1 0 0 1 318 648 )" />
  </g>
</svg>