<?xml version="1.0" encoding="utf-8"?>
<svg version="1.1" xmlns:xlink="http://www.w3.org/1999/xlink" width="64px" height="51px" xmlns="http://www.w3.org/2000/svg">
  <defs>
    <filter x="567px" y="598px" width="64px" height="51px" filterUnits="userSpaceOnUse" id="filter309">
      <feOffset dx="0" dy="0" in="SourceAlpha" result="shadowOffsetInner" />
      <feGaussianBlur stdDeviation="5" in="shadowOffsetInner" result="shadowGaussian" />
      <feComposite in2="shadowGaussian" operator="atop" in="SourceAlpha" result="shadowComposite" />
      <feColorMatrix type="matrix" values="0 0 0 0 0  0 0 0 0 0  0 0 0 0 0  0 0 0 0.3137254901960784 0  " in="shadowComposite" />
    </filter>
    <g id="widget310">
      <path d="M 43.042410714285715 0.8960937500000007  C 43.68080357142857 1.1705729166666656  44 1.6468749999999992  44 2.3249999999999984  L 44 28.675  C 44 29.353125000000002  43.68080357142857 29.829427083333336  43.042410714285715 30.103906249999998  C 42.829613095238095 30.184635416666666  42.62500000000001 30.224999999999998  42.42857142857143 30.224999999999998  C 41.986607142857146 30.224999999999998  41.61830357142858 30.071614583333336  41.323660714285715 29.76484375  L 31.42857142857143 20.0046875  L 31.42857142857143 24.025000000000002  C 31.42857142857143 25.946354166666666  30.736979166666668 27.589192708333336  29.353794642857142 28.953515624999998  C 27.97061011904762 30.317838541666664  26.305059523809526 31  24.357142857142858 31  L 7.071428571428572 31  C 5.123511904761905 31  3.4579613095238098 30.317838541666664  2.0747767857142856 28.953515624999998  C 0.6915922619047619 27.589192708333336  0 25.946354166666666  0 24.025000000000002  L 0 6.975  C 0 5.053645833333328  0.6915922619047619 3.4108072916666656  2.0747767857142856 2.046484375000001  C 3.4579613095238098 0.682161458333329  5.123511904761905 0  7.071428571428572 0  L 24.357142857142858 0  C 26.305059523809526 0  27.97061011904762 0.682161458333329  29.353794642857142 2.046484375000001  C 30.736979166666668 3.4108072916666656  31.42857142857143 5.053645833333328  31.42857142857143 6.975  L 31.42857142857143 10.97109375  L 41.323660714285715 1.2351562499999986  C 41.61830357142858 0.9283854166666655  41.986607142857146 0.7750000000000007  42.42857142857143 0.7750000000000007  C 42.62500000000001 0.7750000000000007  42.829613095238095 0.8153645833333283  43.042410714285715 0.8960937500000007  Z " fill-rule="nonzero" fill="#a36717" stroke="none" transform="matrix(1 0 0 1 577 608 )" />
    </g>
  </defs>
  <g transform="matrix(1 0 0 1 -567 -598 )">
    <use xlink:href="#widget310" filter="url(#filter309)" />
    <use xlink:href="#widget310" />
  </g>
</svg>