<?xml version="1.0" encoding="utf-8"?>
<svg version="1.1" xmlns:xlink="http://www.w3.org/1999/xlink" width="64px" height="50px" xmlns="http://www.w3.org/2000/svg">
  <defs>
    <filter x="392px" y="590px" width="64px" height="50px" filterUnits="userSpaceOnUse" id="filter311">
      <feOffset dx="0" dy="0" in="SourceAlpha" result="shadowOffsetInner" />
      <feGaussianBlur stdDeviation="5" in="shadowOffsetInner" result="shadowGaussian" />
      <feComposite in2="shadowGaussian" operator="atop" in="SourceAlpha" result="shadowComposite" />
      <feColorMatrix type="matrix" values="0 0 0 0 0  0 0 0 0 0  0 0 0 0 0  0 0 0 0.3137254901960784 0  " in="shadowComposite" />
    </filter>
    <g id="widget312">
      <path d="M 25.45714285714286 17.8125  C 25.602197802197804 17.6875  25.666666666666668 17.53125  25.650549450549452 17.34375  L 25.650549450549452 17.25  L 25.07032967032967 9.749999999999998  C 25.054212454212458 9.546874999999996  24.96556776556777 9.371093749999996  24.804395604395605 9.222656249999998  C 24.643223443223448 9.07421875  24.45787545787546 9.000000000000002  24.24835164835165 9.000000000000002  L 19.751648351648353 9.000000000000002  C 19.542124542124544 9.000000000000002  19.35677655677656 9.07421875  19.195604395604395 9.222656249999998  C 19.034432234432238 9.371093749999996  18.945787545787546 9.546874999999996  18.92967032967033 9.749999999999998  L 18.34945054945055 17.25  L 18.34945054945055 17.34375  C 18.333333333333336 17.53125  18.3978021978022 17.6875  18.542857142857144 17.8125  C 18.68791208791209 17.9375  18.857142857142858 18  19.05054945054945 18  L 24.94945054945055 18  C 25.142857142857142 18  25.31208791208791 17.9375  25.45714285714286 17.8125  Z M 43.371428571428574 25.5703125  C 43.7904761904762 26.539062499999996  44 27.4453125  44 28.2890625  C 44 29.429687500000004  43.62930402930403 30  42.887912087912085 30  L 25.86813186813187 30  C 26.077655677655677 30  26.254945054945054 29.925781249999996  26.4 29.77734375  C 26.545054945054943 29.62890625  26.609523809523814 29.453125  26.59340659340659 29.25  L 26.10989010989011 23.25  C 26.0937728937729 23.046875  26.005128205128205 22.87109375  25.843956043956045 22.72265625  C 25.682783882783884 22.574218749999996  25.4974358974359 22.5  25.287912087912087 22.5  L 18.712087912087913 22.5  C 18.502564102564104 22.5  18.31721611721612 22.574218749999996  18.156043956043955 22.72265625  C 17.9948717948718 22.87109375  17.90622710622711 23.046875  17.89010989010989 23.25  L 17.406593406593405 29.25  C 17.390476190476193 29.453125  17.454945054945053 29.62890625  17.6 29.77734375  C 17.745054945054946 29.925781249999996  17.922344322344323 30  18.13186813186813 30  L 1.1120879120879121 30  C 0.37069597069597093 30  0 29.429687500000004  0 28.2890625  C 0 27.4453125  0.20952380952380967 26.539062499999996  0.6285714285714286 25.5703125  L 10.70989010989011 1.1015625000000007  C 10.83882783882784 0.8046874999999976  11.04835164835165 0.5468749999999989  11.338461538461537 0.32812500000000133  C 11.628571428571428 0.10937499999999711  11.934798534798537 0  12.257142857142858 0  L 20.452747252747255 0  C 20.243223443223446 0  20.05787545787546 0.07421874999999578  19.896703296703297 0.22265625000000067  C 19.735531135531136 0.3710937499999989  19.646886446886448 0.5468749999999989  19.630769230769232 0.7500000000000007  L 19.268131868131867 5.250000000000002  C 19.25201465201466 5.468749999999999  19.31648351648352 5.648437499999998  19.46153846153846 5.789062500000001  C 19.60659340659341 5.929687499999999  19.783882783882788 5.999999999999998  19.993406593406593 5.999999999999998  L 24.006593406593403 5.999999999999998  C 24.21611721611722 5.999999999999998  24.393406593406596 5.929687499999999  24.53846153846154 5.789062500000001  C 24.683516483516485 5.648437499999998  24.74798534798535 5.468749999999999  24.731868131868133 5.250000000000002  L 24.36923076923077 0.7500000000000007  C 24.353113553113555 0.5468749999999989  24.264468864468867 0.3710937499999989  24.103296703296706 0.22265625000000067  C 23.942124542124546 0.07421874999999578  23.75677655677656 0  23.547252747252745 0  L 31.742857142857144 0  C 32.06520146520147 0  32.371428571428574 0.10937499999999711  32.66153846153846 0.32812500000000133  C 32.95164835164835 0.5468749999999989  33.16117216117216 0.8046874999999976  33.29010989010989 1.1015625000000007  L 43.371428571428574 25.5703125  Z " fill-rule="nonzero" fill="#a36717" stroke="none" transform="matrix(1 0 0 1 402 600 )" />
    </g>
  </defs>
  <g transform="matrix(1 0 0 1 -392 -590 )">
    <use xlink:href="#widget312" filter="url(#filter311)" />
    <use xlink:href="#widget312" />
  </g>
</svg>