<?xml version="1.0" encoding="utf-8"?>
<svg version="1.1" xmlns:xlink="http://www.w3.org/1999/xlink" width="22px" height="6px" xmlns="http://www.w3.org/2000/svg">
  <g transform="matrix(1 0 0 1 -1156 -769 )">
    <path d="M 21.5625 0.4374999999999998  C 21.854166666666668 0.7291666666666641  22 1.0833333333333321  22 1.5  L 22 4.5  C 22 4.916666666666666  21.854166666666668 5.270833333333332  21.5625 5.5625  C 21.270833333333336 5.854166666666666  20.916666666666668 6  20.5 6  L 1.5 6  C 1.0833333333333335 6  0.7291666666666667 5.854166666666666  0.4375 5.5625  C 0.14583333333333331 5.270833333333332  0 4.916666666666666  0 4.5  L 0 1.5  C 0 1.0833333333333321  0.14583333333333331 0.7291666666666641  0.4375 0.4374999999999998  C 0.7291666666666667 0.14583333333333215  1.0833333333333335 0  1.5 0  L 20.5 0  C 20.916666666666668 0  21.270833333333336 0.14583333333333215  21.5625 0.4374999999999998  Z " fill-rule="nonzero" fill="#6b6c6d" stroke="none" transform="matrix(1 0 0 1 1156 769 )" />
  </g>
</svg>