<?xml version="1.0" encoding="utf-8"?>
<svg version="1.1" xmlns:xlink="http://www.w3.org/1999/xlink" width="45px" height="32px" xmlns="http://www.w3.org/2000/svg">
  <g transform="matrix(1 0 0 1 -209 -279 )">
    <path d="M 44.02064732142857 0.9250000000000007  C 44.673549107142854 1.2083333333333321  45 1.6999999999999993  45 2.3999999999999986  L 45 29.6  C 45 30.3  44.673549107142854 30.791666666666668  44.02064732142857 31.075  C 43.803013392857146 31.15833333333333  43.59375000000001 31.2  43.392857142857146 31.2  C 42.940848214285715 31.2  42.56417410714286 31.041666666666668  42.26283482142857 30.725  L 32.142857142857146 20.65  L 32.142857142857146 24.8  C 32.142857142857146 26.78333333333333  31.435546875 28.479166666666668  30.02092633928571 29.8875  C 28.60630580357143 31.29583333333333  26.90290178571429 32  24.91071428571429 32  L 7.232142857142858 32  C 5.239955357142858 32  3.5365513392857144 31.29583333333333  2.1219308035714284 29.8875  C 0.7073102678571428 28.479166666666668  0 26.78333333333333  0 24.8  L 0 7.199999999999999  C 0 5.2166666666666615  0.7073102678571428 3.520833333333332  2.1219308035714284 2.1125000000000007  C 3.5365513392857144 0.7041666666666622  5.239955357142858 0  7.232142857142858 0  L 24.91071428571429 0  C 26.90290178571429 0  28.60630580357143 0.7041666666666622  30.02092633928571 2.1125000000000007  C 31.435546875 3.520833333333332  32.142857142857146 5.2166666666666615  32.142857142857146 7.199999999999999  L 32.142857142857146 11.325  L 42.26283482142857 1.2749999999999986  C 42.56417410714286 0.9583333333333321  42.940848214285715 0.8000000000000007  43.392857142857146 0.8000000000000007  C 43.59375000000001 0.8000000000000007  43.803013392857146 0.8416666666666615  44.02064732142857 0.9250000000000007  Z " fill-rule="nonzero" fill="#6b6c6d" stroke="none" transform="matrix(1 0 0 1 209 279 )" />
  </g>
</svg>