<?xml version="1.0" encoding="utf-8"?>
<svg version="1.1" xmlns:xlink="http://www.w3.org/1999/xlink" width="21px" height="23px" xmlns="http://www.w3.org/2000/svg">
  <g transform="matrix(1 0 0 1 -12 -29 )">
    <path d="M 11.887102268328562 19.330228365384613  C 11.961237129364406 19.242688301282044  11.998304559882323 19.13441506410257  11.998304559882323 19.00540865384616  L 11.998304559882323 16.379206730769226  C 11.998304559882323 16.250200320512818  11.961237129364406 16.141927083333343  11.887102268328562 16.054387019230774  C 11.812967407292719 15.966846955128204  11.72517612448711 15.923076923076932  11.623728419911748 15.923076923076932  L 9.376271580088257 15.923076923076932  C 9.274823875512892 15.923076923076932  9.187032592707286 15.966846955128204  9.112897731671444 16.054387019230774  C 9.038762870635594 16.141927083333343  9.001695440117675 16.250200320512818  9.001695440117675 16.379206730769226  L 9.001695440117675 19.00540865384616  C 9.001695440117675 19.13441506410257  9.038762870635594 19.242688301282044  9.112897731671444 19.330228365384613  C 9.187032592707286 19.417768429487182  9.274823875512892 19.461538461538453  9.376271580088257 19.461538461538453  L 11.623728419911748 19.461538461538453  C 11.72517612448711 19.461538461538453  11.812967407292719 19.417768429487182  11.887102268328562 19.330228365384613  Z M 11.851985755206316 14.06400240384616  C 11.926120616242164 14.004106570512818  11.967089881551445 13.92808493589743  11.974893551134167 13.8359375  L 12.185592629867616 7.491586538461547  C 12.185592629867616 7.381009615384613  12.146574281954015 7.293469551282044  12.06853758612681 7.228966346153839  C 11.967089881551445 7.127604166666657  11.8734458465588 7.076923076923066  11.787605481148873 7.076923076923066  L 9.212394518851127 7.076923076923066  C 9.126554153441205 7.076923076923066  9.032910118448555 7.127604166666657  8.93146241387319 7.228966346153839  C 8.853425718045985 7.293469551282044  8.814407370132383 7.390224358974365  8.814407370132383 7.519230769230774  L 9.013400944491755 13.8359375  C 9.013400944491755 13.92808493589743  9.052419292405357 14.004106570512818  9.130455988232562 14.06400240384616  C 9.208492684059765 14.123898237179475  9.302136719052415 14.15384615384616  9.4113880932105 14.15384615384616  L 11.576906402415425 14.15384615384616  C 11.686157776573507 14.15384615384616  11.777850894170472 14.123898237179475  11.851985755206316 14.06400240384616  Z M 11.260857784315245 0.248798076923066  C 11.494967871796858 0.4146634615384528  11.678354106990788 0.6404246794871824  11.811016489897037 0.9260817307692264  L 20.80084384919099 20.38762019230768  C 21.073972284586205 20.968149038461547  21.06616861500349 21.548677884615387  20.77743284044283 22.129206730769226  C 20.644770457536577 22.396434294871796  20.46333513973833 22.608373397435912  20.233126887048073 22.765024038461547  C 20.00291863435783 22.921674679487182  19.755152125106452 23  19.48982735929395 23  L 1.5101726407060427 23  C 1.2448478748935512 23  0.9970813656421771 22.921674679487182  0.7668731129519203 22.765024038461547  C 0.5366648602616694 22.608373397435912  0.3552295424634211 22.396434294871796  0.22256715955716938 22.129206730769226  C -0.06616861500348456 21.548677884615387  -0.07397228458620736 20.968149038461547  0.19915615080900695 20.38762019230768  L 9.188983510102963 0.9260817307692264  C 9.321645893009215 0.6404246794871824  9.505032128203148 0.4146634615384528  9.739142215684755 0.248798076923066  C 9.973252303166372 0.08293269230767919  10.226871564604787 0  10.5 0  C 10.773128435395215 0  11.026747696833628 0.08293269230767919  11.260857784315245 0.248798076923066  Z " fill-rule="nonzero" fill="#000000" stroke="none" transform="matrix(1 0 0 1 12 29 )" />
  </g>
</svg>