<?xml version="1.0" encoding="utf-8"?>
<svg version="1.1" xmlns:xlink="http://www.w3.org/1999/xlink" width="49px" height="32px" xmlns="http://www.w3.org/2000/svg">
  <g transform="matrix(1 0 0 1 -33 -93 )">
    <path d="M 47.93359375 0.9250000000000007  C 48.64453125 1.2083333333333321  49 1.6999999999999993  49 2.3999999999999986  L 49 29.6  C 49 30.3  48.64453125 30.791666666666668  47.93359375 31.075  C 47.696614583333336 31.15833333333333  47.46875000000001 31.2  47.25 31.2  C 46.75781250000001 31.2  46.34765625000001 31.041666666666668  46.01953125 30.725  L 35 20.65  L 35 24.8  C 35 26.78333333333333  34.229817708333336 28.479166666666668  32.689453125 29.8875  C 31.149088541666668 31.29583333333333  29.294270833333336 32  27.125 32  L 7.875000000000001 32  C 5.705729166666668 32  3.8509114583333335 31.29583333333333  2.310546875 29.8875  C 0.7701822916666666 28.479166666666668  0 26.78333333333333  0 24.8  L 0 7.199999999999999  C 0 5.2166666666666615  0.7701822916666666 3.520833333333332  2.310546875 2.1125000000000007  C 3.8509114583333335 0.7041666666666622  5.705729166666668 0  7.875000000000001 0  L 27.125 0  C 29.294270833333336 0  31.149088541666668 0.7041666666666622  32.689453125 2.1125000000000007  C 34.229817708333336 3.520833333333332  35 5.2166666666666615  35 7.199999999999999  L 35 11.325  L 46.01953125 1.2749999999999986  C 46.34765625000001 0.9583333333333321  46.75781250000001 0.8000000000000007  47.25 0.8000000000000007  C 47.46875000000001 0.8000000000000007  47.696614583333336 0.8416666666666615  47.93359375 0.9250000000000007  Z " fill-rule="nonzero" fill="#6b6c6d" stroke="none" transform="matrix(1 0 0 1 33 93 )" />
  </g>
</svg>