<?xml version="1.0" encoding="utf-8"?>
<svg version="1.1" xmlns:xlink="http://www.w3.org/1999/xlink" width="57px" height="53px" xmlns="http://www.w3.org/2000/svg">
  <g transform="matrix(1 0 0 1 -174 -306 )">
    <path d="M 17.337499999999988 10.765625  C 18.44583333333333 12.053819444444436  18.999999999999986 13.618055555555548  18.999999999999986 15.458333333333325  C 18.999999999999986 17.298611111111107  18.44583333333333 18.862847222222218  17.337499999999988 20.151041666666675  C 16.22916666666667 21.439236111111107  14.883333333333328 22.083333333333325  13.299999999999999 22.083333333333325  C 11.716666666666658 22.083333333333325  10.370833333333335 21.439236111111107  9.262499999999998 20.151041666666675  C 8.154166666666658 18.862847222222218  7.600000000000001 17.298611111111107  7.600000000000001 15.458333333333325  C 7.600000000000001 13.618055555555548  8.154166666666658 12.053819444444436  9.262499999999998 10.765625  C 10.370833333333335 9.477430555555545  11.716666666666658 8.833333333333327  13.299999999999999 8.833333333333327  C 14.883333333333328 8.833333333333327  16.22916666666667 9.477430555555545  17.337499999999988 10.765625  Z M 37.04999999999999 14.354166666666675  L 49 28.70833333333335  L 49 44  L 7.600000000000001 44  L 7.600000000000001 37.54166666666665  L 17.100000000000005 26.5  L 21.849999999999987 32.02083333333335  L 37.04999999999999 14.354166666666675  Z M 52.91796874999997 4.744466145833326  C 52.72994791666667 4.525933159722218  52.50729166666667 4.416666666666674  52.24999999999997 5  L 4.750000000000008 5  C 4.492708333333345 4.416666666666674  4.270052083333345 4.525933159722218  4.082031250000008 4.744466145833326  C 3.8940104166666694 4.962999131944436  3.7999999999999954 5.221788194444436  4 5.520833333333326  L 4 47.47916666666667  C 3.7999999999999954 47.778211805555564  3.8940104166666694 48.037000868055564  4.082031250000008 48.25553385416667  C 4.270052083333345 48.474066840277786  4.492708333333345 48.58333333333333  4.750000000000008 48  L 52.24999999999997 48  C 52.50729166666667 48.58333333333333  52.72994791666667 48.474066840277786  52.91796874999997 48.25553385416667  C 53.105989583333326 48.037000868055564  53.199999999999996 47.778211805555564  53 47.47916666666667  L 53 5.520833333333326  C 53.199999999999996 5.221788194444436  53.105989583333326 4.962999131944436  52.91796874999997 4.744466145833326  Z M 55.604687499999976 1.6217447916666736  C 56.53489583333333 2.702907986111109  57 4.002604166666674  57 5.520833333333326  L 57 47.47916666666667  C 57 48.99739583333333  56.53489583333333 50.29709201388889  55.604687499999976 51.37825520833333  C 54.674479166666686 52.459418402777786  53.556250000000006 53  52.24999999999997 53  L 4.750000000000008 53  C 3.443749999999997 53  2.3255208333333357 52.459418402777786  1.3953124999999904 51.37825520833333  C 0.4651041666666672 50.29709201388889  0 48.99739583333333  0 47.47916666666667  L 0 5.520833333333326  C 0 4.002604166666674  0.4651041666666672 2.702907986111109  1.3953124999999904 1.6217447916666736  C 2.3255208333333357 0.5405815972222177  3.443749999999997 0  4.750000000000008 0  L 52.24999999999997 0  C 53.556250000000006 0  54.674479166666686 0.5405815972222177  55.604687499999976 1.6217447916666736  Z " fill-rule="nonzero" fill="#6b6c6d" stroke="none" transform="matrix(1 0 0 1 174 306 )" />
  </g>
</svg>