<?xml version="1.0" encoding="utf-8"?>
<svg version="1.1" xmlns:xlink="http://www.w3.org/1999/xlink" width="30px" height="30px" xmlns="http://www.w3.org/2000/svg">
  <defs>
    <mask fill="white" id="clip313">
      <path d="M 9.124999999999995 6.09375  C 9.70833333333333 6.822916666666662  9.999999999999993 7.7083333333333295  9.999999999999993 8.749999999999996  C 9.999999999999993 9.791666666666664  9.70833333333333 10.67708333333333  9.124999999999995 11.406250000000004  C 8.54166666666667 12.135416666666664  7.83333333333333 12.499999999999996  6.999999999999999 12.499999999999996  C 6.1666666666666625 12.499999999999996  5.458333333333335 12.135416666666664  4.874999999999998 11.406250000000004  C 4.2916666666666625 10.67708333333333  4.000000000000001 9.791666666666664  4.000000000000001 8.749999999999996  C 4.000000000000001 7.7083333333333295  4.2916666666666625 6.822916666666662  4.874999999999998 6.09375  C 5.458333333333335 5.364583333333327  6.1666666666666625 4.9999999999999964  6.999999999999999 4.9999999999999964  C 7.83333333333333 4.9999999999999964  8.54166666666667 5.364583333333327  9.124999999999995 6.09375  Z M 19.499999999999993 8.125000000000004  L 26.000000000000004 16.250000000000007  L 26.000000000000004 25  L 4.000000000000001 25  L 4.000000000000001 21.249999999999993  L 9.000000000000004 15  L 11.499999999999995 18.125000000000007  L 19.499999999999993 8.125000000000004  Z M 27.851562499999986 2.685546874999996  C 27.752604166666668 2.561848958333331  27.635416666666668 2.500000000000004  27.499999999999986 2.500000000000004  L 2.500000000000004 2.500000000000004  C 2.3645833333333397 2.500000000000004  2.2473958333333397 2.561848958333331  2.148437500000004 2.685546874999996  C 2.0494791666666683 2.8092447916666616  1.9999999999999976 2.9557291666666616  1.9999999999999976 3.124999999999996  L 1.9999999999999976 26.875000000000004  C 1.9999999999999976 27.04427083333334  2.0494791666666683 27.19075520833334  2.148437500000004 27.314453125000004  C 2.2473958333333397 27.43815104166667  2.3645833333333397 27.499999999999996  2.500000000000004 27.499999999999996  L 27.499999999999986 27.499999999999996  C 27.635416666666668 27.499999999999996  27.752604166666668 27.43815104166667  27.851562499999986 27.314453125000004  C 27.95052083333333 27.19075520833334  27.999999999999996 27.04427083333334  27.999999999999996 26.875000000000004  L 27.999999999999996 3.124999999999996  C 27.999999999999996 2.9557291666666616  27.95052083333333 2.8092447916666616  27.851562499999986 2.685546874999996  Z M 29.26562499999999 0.9179687500000039  C 29.755208333333332 1.5299479166666654  30 2.265625000000004  30 3.124999999999996  L 30 26.875000000000004  C 30 27.734374999999996  29.755208333333332 28.470052083333336  29.26562499999999 29.082031249999996  C 28.77604166666668 29.69401041666667  28.187500000000004 30  27.499999999999986 30  L 2.500000000000004 30  C 1.8124999999999984 30  1.2239583333333346 29.69401041666667  0.7343749999999949 29.082031249999996  C 0.24479166666666693 28.470052083333336  0 27.734374999999996  0 26.875000000000004  L 0 3.124999999999996  C 0 2.265625000000004  0.24479166666666693 1.5299479166666654  0.7343749999999949 0.9179687500000039  C 1.2239583333333346 0.30598958333333076  1.8124999999999984 0  2.500000000000004 0  L 27.499999999999986 0  C 28.187500000000004 0  28.77604166666668 0.30598958333333076  29.26562499999999 0.9179687500000039  Z " fill-rule="evenodd" />
    </mask>
  </defs>
  <g transform="matrix(1 0 0 1 -42 -166 )">
    <path d="M 9.124999999999995 6.09375  C 9.70833333333333 6.822916666666662  9.999999999999993 7.7083333333333295  9.999999999999993 8.749999999999996  C 9.999999999999993 9.791666666666664  9.70833333333333 10.67708333333333  9.124999999999995 11.406250000000004  C 8.54166666666667 12.135416666666664  7.83333333333333 12.499999999999996  6.999999999999999 12.499999999999996  C 6.1666666666666625 12.499999999999996  5.458333333333335 12.135416666666664  4.874999999999998 11.406250000000004  C 4.2916666666666625 10.67708333333333  4.000000000000001 9.791666666666664  4.000000000000001 8.749999999999996  C 4.000000000000001 7.7083333333333295  4.2916666666666625 6.822916666666662  4.874999999999998 6.09375  C 5.458333333333335 5.364583333333327  6.1666666666666625 4.9999999999999964  6.999999999999999 4.9999999999999964  C 7.83333333333333 4.9999999999999964  8.54166666666667 5.364583333333327  9.124999999999995 6.09375  Z M 19.499999999999993 8.125000000000004  L 26.000000000000004 16.250000000000007  L 26.000000000000004 25  L 4.000000000000001 25  L 4.000000000000001 21.249999999999993  L 9.000000000000004 15  L 11.499999999999995 18.125000000000007  L 19.499999999999993 8.125000000000004  Z M 27.851562499999986 2.685546874999996  C 27.752604166666668 2.561848958333331  27.635416666666668 2.500000000000004  27.499999999999986 2.500000000000004  L 2.500000000000004 2.500000000000004  C 2.3645833333333397 2.500000000000004  2.2473958333333397 2.561848958333331  2.148437500000004 2.685546874999996  C 2.0494791666666683 2.8092447916666616  1.9999999999999976 2.9557291666666616  1.9999999999999976 3.124999999999996  L 1.9999999999999976 26.875000000000004  C 1.9999999999999976 27.04427083333334  2.0494791666666683 27.19075520833334  2.148437500000004 27.314453125000004  C 2.2473958333333397 27.43815104166667  2.3645833333333397 27.499999999999996  2.500000000000004 27.499999999999996  L 27.499999999999986 27.499999999999996  C 27.635416666666668 27.499999999999996  27.752604166666668 27.43815104166667  27.851562499999986 27.314453125000004  C 27.95052083333333 27.19075520833334  27.999999999999996 27.04427083333334  27.999999999999996 26.875000000000004  L 27.999999999999996 3.124999999999996  C 27.999999999999996 2.9557291666666616  27.95052083333333 2.8092447916666616  27.851562499999986 2.685546874999996  Z M 29.26562499999999 0.9179687500000039  C 29.755208333333332 1.5299479166666654  30 2.265625000000004  30 3.124999999999996  L 30 26.875000000000004  C 30 27.734374999999996  29.755208333333332 28.470052083333336  29.26562499999999 29.082031249999996  C 28.77604166666668 29.69401041666667  28.187500000000004 30  27.499999999999986 30  L 2.500000000000004 30  C 1.8124999999999984 30  1.2239583333333346 29.69401041666667  0.7343749999999949 29.082031249999996  C 0.24479166666666693 28.470052083333336  0 27.734374999999996  0 26.875000000000004  L 0 3.124999999999996  C 0 2.265625000000004  0.24479166666666693 1.5299479166666654  0.7343749999999949 0.9179687500000039  C 1.2239583333333346 0.30598958333333076  1.8124999999999984 0  2.500000000000004 0  L 27.499999999999986 0  C 28.187500000000004 0  28.77604166666668 0.30598958333333076  29.26562499999999 0.9179687500000039  Z " fill-rule="nonzero" fill="#6b6c6d" stroke="none" transform="matrix(1 0 0 1 42 166 )" />
    <path d="M 9.124999999999995 6.09375  C 9.70833333333333 6.822916666666662  9.999999999999993 7.7083333333333295  9.999999999999993 8.749999999999996  C 9.999999999999993 9.791666666666664  9.70833333333333 10.67708333333333  9.124999999999995 11.406250000000004  C 8.54166666666667 12.135416666666664  7.83333333333333 12.499999999999996  6.999999999999999 12.499999999999996  C 6.1666666666666625 12.499999999999996  5.458333333333335 12.135416666666664  4.874999999999998 11.406250000000004  C 4.2916666666666625 10.67708333333333  4.000000000000001 9.791666666666664  4.000000000000001 8.749999999999996  C 4.000000000000001 7.7083333333333295  4.2916666666666625 6.822916666666662  4.874999999999998 6.09375  C 5.458333333333335 5.364583333333327  6.1666666666666625 4.9999999999999964  6.999999999999999 4.9999999999999964  C 7.83333333333333 4.9999999999999964  8.54166666666667 5.364583333333327  9.124999999999995 6.09375  Z " stroke-width="8" stroke="#797979" fill="none" transform="matrix(1 0 0 1 42 166 )" mask="url(#clip313)" />
    <path d="M 19.499999999999993 8.125000000000004  L 26.000000000000004 16.250000000000007  L 26.000000000000004 25  L 4.000000000000001 25  L 4.000000000000001 21.249999999999993  L 9.000000000000004 15  L 11.499999999999995 18.125000000000007  L 19.499999999999993 8.125000000000004  Z " stroke-width="8" stroke="#797979" fill="none" transform="matrix(1 0 0 1 42 166 )" mask="url(#clip313)" />
    <path d="M 27.851562499999986 2.685546874999996  C 27.752604166666668 2.561848958333331  27.635416666666668 2.500000000000004  27.499999999999986 2.500000000000004  L 2.500000000000004 2.500000000000004  C 2.3645833333333397 2.500000000000004  2.2473958333333397 2.561848958333331  2.148437500000004 2.685546874999996  C 2.0494791666666683 2.8092447916666616  1.9999999999999976 2.9557291666666616  1.9999999999999976 3.124999999999996  L 1.9999999999999976 26.875000000000004  C 1.9999999999999976 27.04427083333334  2.0494791666666683 27.19075520833334  2.148437500000004 27.314453125000004  C 2.2473958333333397 27.43815104166667  2.3645833333333397 27.499999999999996  2.500000000000004 27.499999999999996  L 27.499999999999986 27.499999999999996  C 27.635416666666668 27.499999999999996  27.752604166666668 27.43815104166667  27.851562499999986 27.314453125000004  C 27.95052083333333 27.19075520833334  27.999999999999996 27.04427083333334  27.999999999999996 26.875000000000004  L 27.999999999999996 3.124999999999996  C 27.999999999999996 2.9557291666666616  27.95052083333333 2.8092447916666616  27.851562499999986 2.685546874999996  Z " stroke-width="8" stroke="#797979" fill="none" transform="matrix(1 0 0 1 42 166 )" mask="url(#clip313)" />
    <path d="M 29.26562499999999 0.9179687500000039  C 29.755208333333332 1.5299479166666654  30 2.265625000000004  30 3.124999999999996  L 30 26.875000000000004  C 30 27.734374999999996  29.755208333333332 28.470052083333336  29.26562499999999 29.082031249999996  C 28.77604166666668 29.69401041666667  28.187500000000004 30  27.499999999999986 30  L 2.500000000000004 30  C 1.8124999999999984 30  1.2239583333333346 29.69401041666667  0.7343749999999949 29.082031249999996  C 0.24479166666666693 28.470052083333336  0 27.734374999999996  0 26.875000000000004  L 0 3.124999999999996  C 0 2.265625000000004  0.24479166666666693 1.5299479166666654  0.7343749999999949 0.9179687500000039  C 1.2239583333333346 0.30598958333333076  1.8124999999999984 0  2.500000000000004 0  L 27.499999999999986 0  C 28.187500000000004 0  28.77604166666668 0.30598958333333076  29.26562499999999 0.9179687500000039  Z " stroke-width="8" stroke="#797979" fill="none" transform="matrix(1 0 0 1 42 166 )" mask="url(#clip313)" />
  </g>
</svg>