<?xml version="1.0" encoding="utf-8"?>
<svg version="1.1" xmlns:xlink="http://www.w3.org/1999/xlink" width="60px" height="48px" xmlns="http://www.w3.org/2000/svg">
  <defs>
    <filter x="246px" y="465px" width="60px" height="48px" filterUnits="userSpaceOnUse" id="filter314">
      <feOffset dx="0" dy="0" in="SourceAlpha" result="shadowOffsetInner" />
      <feGaussianBlur stdDeviation="5" in="shadowOffsetInner" result="shadowGaussian" />
      <feComposite in2="shadowGaussian" operator="atop" in="SourceAlpha" result="shadowComposite" />
      <feColorMatrix type="matrix" values="0 0 0 0 0  0 0 0 0 0  0 0 0 0 0  0 0 0 0.3137254901960784 0  " in="shadowComposite" />
    </filter>
    <g id="widget315">
      <path d="M 39.129464285714285 0.8093750000000006  C 39.70982142857143 1.0572916666666656  40 1.4874999999999994  40 2.0999999999999988  L 40 25.900000000000002  C 40 26.5125  39.70982142857143 26.942708333333336  39.129464285714285 27.190625  C 38.936011904761905 27.263541666666665  38.75000000000001 27.3  38.57142857142857 27.3  C 38.16964285714286 27.3  37.83482142857143 27.161458333333336  37.566964285714285 26.884375000000002  L 28.571428571428573 18.068749999999998  L 28.571428571428573 21.7  C 28.571428571428573 23.435416666666665  27.942708333333336 24.919270833333336  26.685267857142854 26.1515625  C 25.42782738095238 27.383854166666666  23.913690476190478 28  22.142857142857146 28  L 6.428571428571429 28  C 4.657738095238096 28  3.1436011904761907 27.383854166666666  1.8861607142857142 26.1515625  C 0.6287202380952381 24.919270833333336  0 23.435416666666665  0 21.7  L 0 6.299999999999999  C 0 4.564583333333329  0.6287202380952381 3.0807291666666656  1.8861607142857142 1.8484375000000006  C 3.1436011904761907 0.6161458333333294  4.657738095238096 0  6.428571428571429 0  L 22.142857142857146 0  C 23.913690476190478 0  25.42782738095238 0.6161458333333294  26.685267857142854 1.8484375000000006  C 27.942708333333336 3.0807291666666656  28.571428571428573 4.564583333333329  28.571428571428573 6.299999999999999  L 28.571428571428573 9.909374999999999  L 37.566964285714285 1.1156249999999988  C 37.83482142857143 0.8385416666666656  38.16964285714286 0.7000000000000006  38.57142857142857 0.7000000000000006  C 38.75000000000001 0.7000000000000006  38.936011904761905 0.7364583333333288  39.129464285714285 0.8093750000000006  Z " fill-rule="nonzero" fill="#a36717" stroke="none" transform="matrix(1 0 0 1 256 475 )" />
    </g>
  </defs>
  <g transform="matrix(1 0 0 1 -246 -465 )">
    <use xlink:href="#widget315" filter="url(#filter314)" />
    <use xlink:href="#widget315" />
  </g>
</svg>