<?xml version="1.0" encoding="utf-8"?>
<svg version="1.1" xmlns:xlink="http://www.w3.org/1999/xlink" width="55px" height="43px" xmlns="http://www.w3.org/2000/svg">
  <defs>
    <filter x="251px" y="140px" width="55px" height="43px" filterUnits="userSpaceOnUse" id="filter316">
      <feOffset dx="0" dy="0" in="SourceAlpha" result="shadowOffsetInner" />
      <feGaussianBlur stdDeviation="5" in="shadowOffsetInner" result="shadowGaussian" />
      <feComposite in2="shadowGaussian" operator="atop" in="SourceAlpha" result="shadowComposite" />
      <feColorMatrix type="matrix" values="0 0 0 0 0  0 0 0 0 0  0 0 0 0 0  0 0 0 0.3137254901960784 0  " in="shadowComposite" />
    </filter>
    <g id="widget317">
      <path d="M 34.23828125 0.6648437500000005  C 34.74609375 0.8684895833333325  35 1.2218749999999994  35 1.724999999999999  L 35 21.275000000000002  C 35 21.778125  34.74609375 22.131510416666668  34.23828125 22.33515625  C 34.06901041666667 22.395052083333333  33.90625000000001 22.425  33.75 22.425  C 33.3984375 22.425  33.10546875 22.311197916666668  32.87109375 22.083593750000002  L 25 14.8421875  L 25 17.825  C 25 19.250520833333333  24.449869791666668 20.469401041666668  23.349609375 21.481640625  C 22.249348958333332 22.49388020833333  20.924479166666668 23  19.375 23  L 5.625 23  C 4.075520833333334 23  2.750651041666667 22.49388020833333  1.650390625 21.481640625  C 0.5501302083333334 20.469401041666668  0 19.250520833333333  0 17.825  L 0 5.175  C 0 3.7494791666666627  0.5501302083333334 2.5305989583333326  1.650390625 1.5183593750000006  C 2.750651041666667 0.5061197916666634  4.075520833333334 0  5.625 0  L 19.375 0  C 20.924479166666668 0  22.249348958333332 0.5061197916666634  23.349609375 1.5183593750000006  C 24.449869791666668 2.5305989583333326  25 3.7494791666666627  25 5.175  L 25 8.139843749999999  L 32.87109375 0.916406249999999  C 33.10546875 0.6888020833333325  33.3984375 0.5750000000000005  33.75 0.5750000000000005  C 33.90625000000001 0.5750000000000005  34.06901041666667 0.6049479166666629  34.23828125 0.6648437500000005  Z " fill-rule="nonzero" fill="#a36717" stroke="none" transform="matrix(1 0 0 1 261 150 )" />
    </g>
  </defs>
  <g transform="matrix(1 0 0 1 -251 -140 )">
    <use xlink:href="#widget317" filter="url(#filter316)" />
    <use xlink:href="#widget317" />
  </g>
</svg>