<?xml version="1.0" encoding="utf-8"?>
<svg version="1.1" xmlns:xlink="http://www.w3.org/1999/xlink" width="309px" height="101px" xmlns="http://www.w3.org/2000/svg">
  <g transform="matrix(1 0 0 1 -59.5 -128.5 )">
    <path d="M 0.02471568748204873 25.60254119515584  L 25.35829535657102 35.44967242406195  L 34.62667816233528 43.45046654754819  L 46.98452190335429 50.22036926742113  L 59.96025783142424 56.37482628548742  L 79.73280781705466 56.47945205479452  L 93.94432811922648 65.60651181258689  L 121.7494765365193 80.99265435775267  L 141.5220265221497 92.68612269207865  L 152.64408588906684 93  L 160.67668432072918 92.68612269207865  L 172.41663587469725 80.99265435775267  L 180.44923430635959 74.22275163787972  L 184.15658742866526 69.29918602342666  L 187.86394055097105 65.60651181258689  L 201.45756866609187 60.5  L 211.96173584595806 60.5  L 236.0595311409451 60.06750049632719  L 258.9215420618303 43.45046654754819  L 259.21813031161474 25.479452054794518  L 276.2225232992569 5.5  L 297.23085765898924 5.5  L 297.5892351274788 0.36926742108398175  L 300.93821078129497 0.36926742108398175  " stroke-width="7" stroke="#797979" fill="none" transform="matrix(1 0 0 1 63 132 )" />
  </g>
</svg>