<?xml version="1.0" encoding="utf-8"?>
<svg version="1.1" xmlns:xlink="http://www.w3.org/1999/xlink" width="60px" height="47px" xmlns="http://www.w3.org/2000/svg">
  <defs>
    <filter x="62px" y="136px" width="60px" height="47px" filterUnits="userSpaceOnUse" id="filter302">
      <feOffset dx="0" dy="0" in="SourceAlpha" result="shadowOffsetInner" />
      <feGaussianBlur stdDeviation="5" in="shadowOffsetInner" result="shadowGaussian" />
      <feComposite in2="shadowGaussian" operator="atop" in="SourceAlpha" result="shadowComposite" />
      <feColorMatrix type="matrix" values="0 0 0 0 0  0 0 0 0 0  0 0 0 0 0  0 0 0 0.3137254901960784 0  " in="shadowComposite" />
    </filter>
    <g id="widget303">
      <path d="M 23.142857142857146 16.03125  C 23.274725274725277 15.918750000000001  23.333333333333336 15.778125  23.31868131868132 15.609375  L 23.31868131868132 15.524999999999999  L 22.79120879120879 8.774999999999999  C 22.77655677655678 8.592187499999998  22.6959706959707 8.433984374999998  22.549450549450547 8.300390624999999  C 22.40293040293041 8.166796875000001  22.234432234432234 8.100000000000001  22.043956043956044 8.100000000000001  L 17.956043956043956 8.100000000000001  C 17.765567765567766 8.100000000000001  17.5970695970696 8.166796875000001  17.450549450549453 8.300390624999999  C 17.304029304029307 8.433984374999998  17.223443223443226 8.592187499999998  17.20879120879121 8.774999999999999  L 16.681318681318682 15.524999999999999  L 16.681318681318682 15.609375  C 16.666666666666668 15.778125  16.725274725274726 15.918750000000001  16.857142857142858 16.03125  C 16.98901098901099 16.14375  17.142857142857142 16.2  17.31868131868132 16.2  L 22.68131868131868 16.2  C 22.857142857142854 16.2  23.010989010989007 16.14375  23.142857142857146 16.03125  Z M 39.42857142857143 23.01328125  C 39.80952380952382 23.885156249999998  40 24.70078125  40 25.46015625  C 40 26.48671875  39.663003663003664 27  38.989010989010985 27  L 23.516483516483518 27  C 23.706959706959708 27  23.86813186813187 26.933203125  24 26.799609375  C 24.13186813186813 26.666015625  24.190476190476193 26.5078125  24.175824175824175 26.325  L 23.736263736263737 20.925  C 23.721611721611726 20.7421875  23.641025641025642 20.583984375  23.494505494505496 20.450390625  C 23.34798534798535 20.316796874999998  23.179487179487182 20.25  22.989010989010985 20.25  L 17.01098901098901 20.25  C 16.82051282051282 20.25  16.652014652014653 20.316796874999998  16.505494505494504 20.450390625  C 16.35897435897436 20.583984375  16.27838827838828 20.7421875  16.263736263736263 20.925  L 15.824175824175823 26.325  C 15.80952380952381 26.5078125  15.868131868131867 26.666015625  16 26.799609375  C 16.13186813186813 26.933203125  16.293040293040292 27  16.483516483516482 27  L 1.010989010989011 27  C 0.3369963369963372 27  0 26.48671875  0 25.46015625  C 0 24.70078125  0.1904761904761906 23.885156249999998  0.5714285714285714 23.01328125  L 9.736263736263735 0.9914062500000006  C 9.853479853479854 0.7242187499999978  10.043956043956046 0.492187499999999  10.307692307692307 0.2953125000000012  C 10.571428571428571 0.0984374999999974  10.84981684981685 0  11.142857142857142 0  L 18.593406593406595 0  C 18.402930402930405 0  18.234432234432237 0.0667968749999962  18.087912087912088 0.2003906250000006  C 17.94139194139194 0.333984374999999  17.86080586080586 0.492187499999999  17.846153846153847 0.6750000000000006  L 17.516483516483518 4.725000000000001  C 17.501831501831507 4.921874999999999  17.560439560439562 5.083593749999999  17.692307692307693 5.210156250000001  C 17.82417582417583 5.336718749999999  17.98534798534799 5.399999999999999  18.175824175824175 5.399999999999999  L 21.82417582417582 5.399999999999999  C 22.014652014652015 5.399999999999999  22.175824175824175 5.336718749999999  22.307692307692307 5.210156250000001  C 22.439560439560438 5.083593749999999  22.498168498168496 4.921874999999999  22.483516483516482 4.725000000000001  L 22.153846153846153 0.6750000000000006  C 22.13919413919414 0.492187499999999  22.05860805860806 0.333984374999999  21.912087912087912 0.2003906250000006  C 21.765567765567766 0.0667968749999962  21.5970695970696 0  21.406593406593405 0  L 28.857142857142858 0  C 29.150183150183153 0  29.42857142857143 0.0984374999999974  29.692307692307693 0.2953125000000012  C 29.956043956043956 0.492187499999999  30.146520146520146 0.7242187499999978  30.263736263736263 0.9914062500000006  L 39.42857142857143 23.01328125  Z " fill-rule="nonzero" fill="#a36717" stroke="none" transform="matrix(1 0 0 1 72 146 )" />
    </g>
  </defs>
  <g transform="matrix(1 0 0 1 -62 -136 )">
    <use xlink:href="#widget303" filter="url(#filter302)" />
    <use xlink:href="#widget303" />
  </g>
</svg>