<?xml version="1.0" encoding="utf-8"?>
<svg version="1.1" xmlns:xlink="http://www.w3.org/1999/xlink" width="55px" height="43px" xmlns="http://www.w3.org/2000/svg">
  <defs>
    <filter x="116px" y="169px" width="55px" height="43px" filterUnits="userSpaceOnUse" id="filter324">
      <feOffset dx="0" dy="0" in="SourceAlpha" result="shadowOffsetInner" />
      <feGaussianBlur stdDeviation="5" in="shadowOffsetInner" result="shadowGaussian" />
      <feComposite in2="shadowGaussian" operator="atop" in="SourceAlpha" result="shadowComposite" />
      <feColorMatrix type="matrix" values="0 0 0 0 0  0 0 0 0 0  0 0 0 0 0  0 0 0 0.3137254901960784 0  " in="shadowComposite" />
    </filter>
    <g id="widget325">
      <path d="M 20.250000000000004 13.65625  C 20.365384615384617 13.560416666666667  20.416666666666668 13.440624999999999  20.403846153846157 13.296875  L 20.403846153846157 13.225  L 19.94230769230769 7.474999999999999  C 19.929487179487182 7.319270833333331  19.85897435897436 7.184505208333331  19.73076923076923 7.070703124999999  C 19.602564102564106 6.956901041666667  19.455128205128204 6.900000000000001  19.28846153846154 6.900000000000001  L 15.711538461538462 6.900000000000001  C 15.544871794871796 6.900000000000001  15.3974358974359 6.956901041666667  15.26923076923077 7.070703124999999  C 15.141025641025644 7.184505208333331  15.070512820512821 7.319270833333331  15.057692307692308 7.474999999999999  L 14.596153846153847 13.225  L 14.596153846153847 13.296875  C 14.583333333333334 13.440624999999999  14.634615384615385 13.560416666666667  14.75 13.65625  C 14.865384615384615 13.752083333333333  15 13.799999999999999  15.153846153846155 13.799999999999999  L 19.846153846153847 13.799999999999999  C 20 13.799999999999999  20.134615384615383 13.752083333333333  20.250000000000004 13.65625  Z M 34.5 19.603906249999998  C 34.833333333333336 20.34661458333333  35 21.041406249999998  35 21.68828125  C 35 22.56276041666667  34.705128205128204 23  34.11538461538461 23  L 20.576923076923077 23  C 20.743589743589745 23  20.884615384615383 22.94309895833333  21 22.829296875  C 21.115384615384613 22.715494791666668  21.166666666666668 22.580729166666668  21.153846153846153 22.425  L 20.76923076923077 17.825  C 20.75641025641026 17.669270833333332  20.685897435897438 17.534505208333332  20.55769230769231 17.420703125  C 20.429487179487182 17.306901041666663  20.282051282051285 17.25  20.115384615384613 17.25  L 14.884615384615385 17.25  C 14.717948717948719 17.25  14.570512820512821 17.306901041666663  14.442307692307692 17.420703125  C 14.314102564102566 17.534505208333332  14.243589743589746 17.669270833333332  14.23076923076923 17.825  L 13.846153846153845 22.425  C 13.833333333333334 22.580729166666668  13.884615384615383 22.715494791666668  14 22.829296875  C 14.115384615384615 22.94309895833333  14.256410256410255 23  14.423076923076922 23  L 0.8846153846153846 23  C 0.29487179487179505 23  0 22.56276041666667  0 21.68828125  C 0 21.041406249999998  0.16666666666666677 20.34661458333333  0.5 19.603906249999998  L 8.519230769230768 0.8445312500000005  C 8.621794871794872 0.6169270833333315  8.78846153846154 0.4192708333333325  9.019230769230768 0.251562500000001  C 9.25 0.08385416666666445  9.493589743589745 0  9.75 0  L 16.26923076923077 0  C 16.102564102564102 0  15.955128205128206 0.05690104166666343  15.826923076923077 0.1707031250000005  C 15.698717948717949 0.2845052083333325  15.62820512820513 0.4192708333333325  15.615384615384617 0.5750000000000005  L 15.326923076923077 4.025000000000001  C 15.314102564102567 4.192708333333332  15.365384615384617 4.330468749999999  15.48076923076923 4.43828125  C 15.596153846153848 4.54609375  15.737179487179489 4.599999999999999  15.903846153846153 4.599999999999999  L 19.096153846153843 4.599999999999999  C 19.262820512820515 4.599999999999999  19.403846153846153 4.54609375  19.51923076923077 4.43828125  C 19.634615384615383 4.330468749999999  19.685897435897434 4.192708333333332  19.673076923076923 4.025000000000001  L 19.384615384615387 0.5750000000000005  C 19.371794871794872 0.4192708333333325  19.30128205128205 0.2845052083333325  19.173076923076923 0.1707031250000005  C 19.044871794871796 0.05690104166666343  18.8974358974359 0  18.73076923076923 0  L 25.25 0  C 25.50641025641026 0  25.75 0.08385416666666445  25.980769230769234 0.251562500000001  C 26.21153846153846 0.4192708333333325  26.378205128205128 0.6169270833333315  26.48076923076923 0.8445312500000005  L 34.5 19.603906249999998  Z " fill-rule="nonzero" fill="#a36717" stroke="none" transform="matrix(1 0 0 1 126 179 )" />
    </g>
  </defs>
  <g transform="matrix(1 0 0 1 -116 -169 )">
    <use xlink:href="#widget325" filter="url(#filter324)" />
    <use xlink:href="#widget325" />
  </g>
</svg>