<?xml version="1.0" encoding="utf-8"?>
<svg version="1.1" xmlns:xlink="http://www.w3.org/1999/xlink" width="30px" height="26px" xmlns="http://www.w3.org/2000/svg">
  <g transform="matrix(1 0 0 1 -223 -3 )">
    <path d="M 27.857142857142858 2.1638491547464245  L 27.857142857142858 8.655396618985696  C 28.44866071428572 8.655396618985696  28.95368303571429 8.866710013003901  29.37220982142857 9.289336801040312  C 29.790736607142858 9.711963589076724  30 10.22193324664066  30 10.81924577373212  C 30 11.41655830082358  29.790736607142858 11.926527958387515  29.37220982142857 12.349154746423926  C 28.95368303571429 12.771781534460336  28.44866071428572 12.983094928478543  27.857142857142858 12.983094928478543  L 27.857142857142858 19.474642392717815  C 27.857142857142858 20.060684872128302  27.64508928571429 20.567837017771996  27.220982142857142 20.996098829648894  C 26.796875000000004 21.42436064152579  26.294642857142858 21.638491547464238  25.71428571428571 21.638491547464238  C 21.060267857142858 17.727785002167312  16.529017857142858 15.586475942782833  12.120535714285715 15.214564369310795  C 11.473214285714286 15.42869527524924  10.965401785714285 15.800606848721282  10.597098214285715 16.330299089726918  C 10.228794642857144 16.85999133073255  10.055803571428573 17.42631122670134  10.078125 18.02925877763329  C 10.100446428571429 18.632206328565236  10.323660714285715 19.15344603381014  10.747767857142856 19.592977893368012  C 10.524553571428573 19.964889466840052  10.396205357142856 20.33398352839185  10.362723214285715 20.70026007802341  C 10.329241071428571 21.066536627654962  10.362723214285715 21.39336801040312  10.463169642857144 21.68075422626788  C 10.563616071428571 21.96814044213264  10.750558035714288 22.27806675335934  11.023995535714285 22.610533159947984  C 11.297433035714286 22.942999566536628  11.565290178571429 23.224750758560898  11.827566964285715 23.455786736020805  C 12.08984375 23.686822713480712  12.433035714285715 23.971391417425227  12.857142857142856 24.309492847854358  C 12.533482142857144 24.963155613350672  11.911272321428571 25.430862592110966  10.990513392857144 25.71261378413524  C 10.069754464285715 25.994364976159517  9.129464285714286 26.059167750325095  8.169642857142856 25.907022106631988  C 7.20982142857143 25.75487646293888  6.4732142857142865 25.442132639791936  5.959821428571428 24.968790637191155  C 5.88169642857143 24.709579540528825  5.717075892857142 24.216514954486346  5.465959821428572 23.489596879063722  C 5.21484375 22.762678803641094  5.036272321428572 22.230169050715215  4.930245535714286 21.892067620286085  C 4.824218750000001 21.553966189856958  4.695870535714286 21.05244906805375  4.545200892857142 20.387516254876463  C 4.39453125 19.722583441699175  4.310825892857142 19.15344603381014  4.294084821428572 18.680104031209364  C 4.277343750000001 18.20676202860858  4.296875000000001 17.65171218032076  4.352678571428572 17.014954486345903  C 4.408482142857144 16.378196792371046  4.531250000000001 15.755526657997397  4.720982142857142 15.146944083224968  L 2.678571428571429 15.146944083224968  C 1.9419642857142858 15.146944083224968  1.3113839285714286 14.882097962722149  0.7868303571428572 14.352405721716515  C 0.2622767857142857 13.822713480710878  0 13.185955786736022  0 12.442132639791938  L 0 9.196358907672302  C 0 8.45253576072822  0.2622767857142857 7.8157780667533565  0.7868303571428572 7.2860858257477235  C 1.3113839285714286 6.756393584742087  1.9419642857142858 6.491547464239272  2.678571428571429 6.491547464239272  L 10.714285714285715 6.491547464239272  C 15.569196428571429 6.491547464239272  20.56919642857143 4.327698309492846  25.71428571428571 0  C 26.294642857142858 0  26.796875000000004 0.21413090593844553  27.220982142857142 0.6423927178153452  C 27.64508928571429 1.0706545296922392  27.857142857142858 1.5778066753359323  27.857142857142858 2.1638491547464245  Z M 12.857142857142856 13.10143042912874  C 17.064732142857142 13.574772431729517  21.35044642857143 15.496315561335065  25.71428571428571 18.866059817945384  L 25.71428571428571 2.7386215864759427  C 21.31696428571429 6.142175986129171  17.03125 8.07498916341569  12.857142857142856 8.537061118335501  L 12.857142857142856 13.10143042912874  Z " fill-rule="nonzero" fill="#808080" stroke="none" transform="matrix(1 0 0 1 223 3 )" />
  </g>
</svg>